<?xml version="1.0" encoding="utf-8"?>
<!-- Generator: Adobe Illustrator 27.5.0, SVG Export Plug-In . SVG Version: 6.00 Build 0)  -->
<svg version="1.1" id="Vrstva_1" xmlns="http://www.w3.org/2000/svg" xmlns:xlink="http://www.w3.org/1999/xlink" x="0px" y="0px"
	 viewBox="0 0 1055.8 543.9" style="enable-background:new 0 0 1055.8 543.9;" xml:space="preserve">
<style type="text/css">
	.st0{fill:#002882;}
	.st1{fill:#81C534;}
</style>
<path class="st0" d="M859.6,116.7h-114v8.9h114c46.7,0,84.7,38,84.7,84.7v137.5c0,46.7-38,84.7-84.7,84.7H196.1
	c-46.7,0-84.7-38-84.7-84.7V210.3c0-46.7,38-84.7,84.7-84.7h114v-8.9h-114c-51.6,0-93.6,42-93.6,93.6v137.5
	c0,51.6,42,93.6,93.6,93.6h663.5c51.6,0,93.6-42,93.6-93.6V210.3C953.2,158.7,911.3,116.7,859.6,116.7z"/>
<path class="st0" d="M354.2,125.7h-9.4v-5h9.4c1.6,0,3-0.3,4-0.8c1-0.5,1.7-1.3,2.2-2.2c0.5-0.9,0.7-2,0.7-3.2
	c0-1.1-0.2-2.2-0.7-3.2c-0.5-1-1.2-1.8-2.2-2.4c-1-0.6-2.3-0.9-4-0.9h-7.5v31.2h-6.2V103h13.8c2.8,0,5.2,0.5,7.1,1.5
	c2,1,3.5,2.3,4.5,4.1c1,1.7,1.5,3.7,1.5,5.9c0,2.3-0.5,4.3-1.5,6c-1,1.7-2.5,3-4.5,3.9C359.3,125.3,357,125.7,354.2,125.7z
	 M409.5,120.1v2c0,2.7-0.4,5.2-1.1,7.4c-0.7,2.2-1.7,4-3.1,5.5c-1.3,1.5-2.9,2.7-4.7,3.5c-1.8,0.8-3.9,1.2-6.1,1.2
	c-2.2,0-4.3-0.4-6.1-1.2c-1.8-0.8-3.4-2-4.8-3.5c-1.3-1.5-2.4-3.4-3.1-5.5c-0.7-2.2-1.1-4.6-1.1-7.4v-2c0-2.7,0.4-5.2,1.1-7.3
	c0.7-2.2,1.8-4,3.1-5.5c1.3-1.5,2.9-2.7,4.8-3.5c1.8-0.8,3.9-1.2,6.1-1.2c2.2,0,4.3,0.4,6.1,1.2c1.8,0.8,3.4,2,4.8,3.5
	c1.3,1.5,2.3,3.4,3.1,5.5C409.1,114.9,409.5,117.4,409.5,120.1z M403.2,122.1v-2c0-2-0.2-3.8-0.6-5.3c-0.4-1.6-1-2.9-1.7-3.9
	c-0.8-1.1-1.7-1.9-2.8-2.4c-1.1-0.5-2.3-0.8-3.7-0.8c-1.4,0-2.6,0.3-3.7,0.8c-1.1,0.5-2,1.3-2.8,2.4c-0.7,1-1.3,2.3-1.7,3.9
	c-0.4,1.5-0.6,3.3-0.6,5.3v2c0,2,0.2,3.8,0.6,5.4c0.4,1.6,1,2.9,1.7,4c0.8,1.1,1.7,1.9,2.8,2.4c1.1,0.5,2.3,0.8,3.7,0.8
	c1.4,0,2.6-0.3,3.7-0.8c1.1-0.5,2-1.4,2.7-2.4c0.7-1.1,1.3-2.4,1.7-4C403,125.9,403.2,124.1,403.2,122.1z M432.4,131.1l7.2-28.1h3.8
	l-0.4,7.2l-7.7,29h-3.9L432.4,131.1z M427,103l5.8,27.9l0.5,8.4h-4.2l-8.4-36.2H427z M451.6,130.8l5.8-27.8h6.2l-8.4,36.2H451
	L451.6,130.8z M444.9,103l7.1,28.2l1,8.1h-3.9l-7.6-29l-0.4-7.2H444.9z M499.6,134.3v5h-19.2v-5H499.6z M482.1,103v36.2h-6.3V103
	H482.1z M497.1,118.1v4.9h-16.7v-4.9H497.1z M499.4,103v5h-19.1v-5H499.4z M512.3,103h12.8c2.8,0,5.1,0.4,7,1.2
	c1.9,0.8,3.4,2.1,4.4,3.7c1,1.6,1.6,3.6,1.6,6c0,1.8-0.3,3.4-1,4.8c-0.7,1.4-1.6,2.5-2.8,3.5c-1.2,0.9-2.7,1.6-4.3,2.2l-1.9,0.9
	h-11.5l-0.1-4.9h8.6c1.5,0,2.7-0.3,3.7-0.8c1-0.5,1.7-1.3,2.2-2.2c0.5-0.9,0.8-2,0.8-3.1c0-1.3-0.2-2.4-0.7-3.3
	c-0.5-0.9-1.2-1.7-2.2-2.2c-1-0.5-2.3-0.8-3.9-0.8h-6.6v31.2h-6.2V103z M533,139.2l-8.5-16.3l6.5,0l8.6,16v0.3H533z M575.7,134.3v5
	h-19.2v-5H575.7z M558.3,103v36.2H552V103H558.3z M573.2,118.1v4.9h-16.7v-4.9H573.2z M575.6,103v5h-19.1v-5H575.6z M599,139.2h-7.7
	l0.1-5h7.7c2.2,0,4.1-0.5,5.6-1.5c1.5-1,2.7-2.4,3.4-4.2c0.8-1.8,1.2-4,1.2-6.5v-2c0-2-0.2-3.7-0.7-5.2c-0.4-1.5-1.1-2.8-1.9-3.8
	c-0.8-1-1.9-1.8-3.1-2.3c-1.2-0.5-2.6-0.8-4.3-0.8h-8.1v-5h8.1c2.4,0,4.6,0.4,6.6,1.2c2,0.8,3.7,1.9,5.1,3.5
	c1.5,1.5,2.6,3.3,3.4,5.4c0.8,2.1,1.2,4.5,1.2,7.1v1.9c0,2.6-0.4,5-1.2,7.1c-0.8,2.1-1.9,3.9-3.4,5.4c-1.5,1.5-3.2,2.6-5.2,3.5
	C603.7,138.8,601.5,139.2,599,139.2z M594.7,103v36.2h-6.3V103H594.7z M663.3,122.9h-9.2l-0.1-4.6h8c1.4,0,2.5-0.2,3.5-0.6
	c1-0.4,1.7-1,2.2-1.8c0.5-0.8,0.7-1.7,0.7-2.8c0-1.2-0.2-2.2-0.7-3c-0.5-0.8-1.2-1.3-2.1-1.7c-0.9-0.3-2.2-0.5-3.6-0.5h-6v31.2h-6.2
	V103H662c2,0,3.8,0.2,5.3,0.6c1.6,0.4,2.9,1,4,1.8c1.1,0.8,1.9,1.8,2.5,3c0.6,1.2,0.9,2.7,0.9,4.4c0,1.5-0.4,2.9-1.1,4.1
	c-0.7,1.2-1.8,2.2-3.2,3c-1.4,0.8-3.1,1.2-5.2,1.4L663.3,122.9z M663,139.2h-10.9l2.8-5h8.1c1.4,0,2.6-0.2,3.5-0.7
	c0.9-0.5,1.7-1.1,2.1-2c0.5-0.8,0.7-1.8,0.7-3c0-1.2-0.2-2.2-0.6-3.1c-0.4-0.9-1.1-1.6-2-2c-0.9-0.5-2.1-0.7-3.5-0.7h-7l0.1-4.6h9.1
	l1.4,1.7c2,0.1,3.6,0.5,4.9,1.3c1.3,0.8,2.3,1.9,2.9,3.2c0.6,1.3,0.9,2.7,0.9,4.2c0,2.3-0.5,4.2-1.5,5.8c-1,1.6-2.4,2.7-4.3,3.6
	C667.9,138.8,665.7,139.2,663,139.2z M691.6,103l8.4,17.3l8.4-17.3h6.9l-12.2,22.9v13.3h-6.3v-13.3L684.7,103H691.6z"/>
<g>
	<path class="st0" d="M214,323.8v-89.6c0-1.9,0.6-3.5,1.9-4.8c1.3-1.4,2.9-2,4.8-2h55c29,0,43.6,13.4,43.6,40.1
		c0,26.7-14.5,40.1-43.6,40.1h-34.5v16.2c0,1.9-0.7,3.5-2,4.8c-1.3,1.3-2.9,2-4.8,2h-13.5c-1.9,0-3.5-0.7-4.8-2
		C214.6,327.3,214,325.7,214,323.8L214,323.8z M241.1,287.3h26.3c8.1,0,14.2-1.4,18.4-4.1c4.2-2.7,6.3-7.9,6.3-15.7
		c0-7.7-2.1-13-6.3-15.7s-10.3-4.1-18.4-4.1h-26.3V287.3L241.1,287.3z"/>
	<path class="st0" d="M329.1,324v-89.6c0-2,0.7-3.6,2-5c1.4-1.3,3-2,4.8-2h13.6c1.9,0,3.5,0.7,4.8,2c1.3,1.3,2,3,2,5v75.8H419
		c1.9,0,3.5,0.7,4.8,2c1.3,1.3,2,3,2,4.8v6.8c0,1.9-0.6,3.5-2,4.8c-1.3,1.3-2.9,2-4.8,2h-83.1c-1.9,0-3.5-0.6-4.8-1.9
		C329.8,327.4,329.1,325.9,329.1,324L329.1,324z"/>
	<path class="st0" d="M430.1,289.5v-55.2c0-1.9,0.7-3.5,2-4.8c1.3-1.3,3-2,4.9-2h13.4c1.8,0,3.4,0.7,4.7,2c1.3,1.3,2,2.9,2,4.8v55.3
		c0,7,1.5,12.2,4.6,15.7c3.1,3.4,7.8,5.1,14.3,5.1h11.5c6.4,0,11.2-1.7,14.3-5.1c3.1-3.4,4.6-8.7,4.6-15.7v-55.3
		c0-1.9,0.7-3.5,2-4.8c1.3-1.3,2.9-2,4.8-2h13.3c2,0,3.6,0.7,4.9,2c1.3,1.3,2,2.9,2,4.8v55.2c0,13.1-3.8,23.2-11.5,30.4
		c-7.7,7.2-18.9,10.8-33.7,10.8h-12.9c-14.8,0-26-3.6-33.7-10.8C433.9,312.7,430.1,302.6,430.1,289.5L430.1,289.5z"/>
	<path class="st0" d="M625.8,321.6c-4.2,0-8.1-1.5-11.2-4.5c-2-1.9-3.5-4.2-4.2-6.7c-3.7,0-23.1,0-30.9,0H550c-1.9,0-3.5,0.7-4.8,2
		c-1.3,1.3-2,2.9-2,4.8v6.7c0,1.9,0.7,3.5,2,4.8c1.3,1.3,2.9,2,4.8,2h52.4c16.6,0,28.3-2,35.2-7.2c0.8-0.6,1.5-1.2,2.2-1.9
		L625.8,321.6L625.8,321.6z"/>
	<path class="st0" d="M558.6,280c4.6,2.2,9.6,4.1,15.1,5.7c5.5,1.6,11,3,16.5,4c5.5,1.1,10.6,2.2,15.2,3.3c1.6,0.4,3.1,0.8,4.5,1.2
		c0.6-5.3,2.9-10.2,6.6-14.3l5.2-5.9c-0.4-0.1-0.9-0.3-1.3-0.4c-7.6-2-15.2-3.8-22.8-5.3s-14-3.1-19.3-5c-5.3-1.9-8-4.4-8-7.4
		c0-5.5,4.2-8.2,12.6-8.2h47.1c1.9,0,3.5-0.7,4.8-2c1.3-1.3,2-2.9,2-4.8v-6.7c0-1.9-0.7-3.5-2-4.8c-1.3-1.3-2.9-2-4.8-2h-41.2
		c-16.7,0-28.4,2.6-35.2,7.8c-6.8,5.2-10.2,12.6-10.2,22.1c0,5.2,1.4,9.7,4.3,13.5C550.3,274.8,554.1,277.8,558.6,280L558.6,280z"/>
</g>
<g>
	<path class="st1" d="M618.8,305.7v-8.6c0-4.2,1.5-8,4.5-11.2l47.6-54c2.6-2.9,6.4-4.4,11.2-4.5h22.6c2,0,3.6,0.7,5,2
		c1.4,1.3,2,2.9,2,4.8v57.8h7.9c2,0,3.6,0.7,5,2c1.4,1.3,2,3,2,4.8v6.8c0,1.9-0.7,3.5-2.1,4.8c-1.4,1.3-3,2-4.9,2h-7.9v11.4
		c0,1.9-0.7,3.5-2.1,4.8c-1.4,1.3-3,2-4.9,2h-13.4c-1.9,0-3.5-0.6-4.8-1.9c-1.3-1.3-2-2.8-2-4.7v-11.5h-58.7c-1.9,0-3.5-0.7-4.9-2
		C619.5,309.2,618.8,307.6,618.8,305.7L618.8,305.7z M647.8,292.1h36.8v-41.6L647.8,292.1z"/>
	<path class="st1" d="M738.5,289.5v-55.2c0-1.9,0.7-3.5,2-4.8c1.3-1.3,2.9-2,4.9-2h13.4c1.8,0,3.4,0.7,4.7,2c1.3,1.3,2,2.9,2,4.8
		v55.4c0,7,1.6,12.2,4.6,15.7c3.1,3.4,7.8,5.2,14.3,5.2h11.5c6.4,0,11.2-1.7,14.3-5.2c3.1-3.4,4.6-8.7,4.6-15.7v-55.4
		c0-1.9,0.6-3.5,2-4.8c1.3-1.3,2.9-2,4.8-2h13.3c2,0,3.6,0.7,5,2c1.3,1.3,2,2.9,2,4.8v55.2c0,13.1-3.8,23.2-11.5,30.4
		c-7.7,7.2-18.9,10.8-33.7,10.8h-12.9c-14.8,0-26-3.6-33.7-10.8C742.3,312.7,738.5,302.5,738.5,289.5L738.5,289.5z"/>
</g>
</svg>
