<?xml version="1.0" encoding="UTF-8"?><svg id="Vrstva_2" xmlns="http://www.w3.org/2000/svg" xmlns:xlink="http://www.w3.org/1999/xlink" viewBox="0 0 700 700"><defs><style>.cls-1{fill:#000;stroke-width:0px;}</style><symbol id="_3_letters_Safari" viewBox="0 0 96 96"><path class="cls-1" d="M88.33,0H7.67C3.43,0,0,3.43,0,7.67v80.67c0,4.23,3.43,7.67,7.67,7.67h80.67c4.23,0,7.67-3.43,7.67-7.67V7.67c0-4.23-3.43-7.67-7.67-7.67ZM25.32,50.18h-1.33v4.8c0,.75-.61,1.37-1.37,1.37h-1.78c-.75,0-1.36-.61-1.36-1.37v-4.8h-4.8c-.75,0-1.37-.61-1.37-1.37v-1.78c0-.75.61-1.37,1.37-1.37h4.8v-4.8c0-.75.61-1.37,1.36-1.37h1.78c.75,0,1.37.61,1.37,1.37v4.8h4.8s0,0,0,0l-2.24,2.54c-.54.6-.96,1.26-1.24,1.97ZM53.99,54.66c0,.47-.17.86-.52,1.19-.35.33-.75.49-1.22.49h-1.97v2.84c0,.47-.17.86-.52,1.19-.35.33-.75.49-1.22.49h-3.34c-.47,0-.86-.16-1.19-.48-.33-.32-.49-.71-.49-1.18v-2.87h-14.63c-.47,0-.87-.16-1.22-.49-.35-.33-.52-.73-.52-1.19v-2.14c0-1.05.37-1.99,1.11-2.8l11.86-13.48c.66-.73,1.59-1.1,2.8-1.11h5.62c.49,0,.9.17,1.24.5.33.34.5.74.5,1.2v14.43h1.97c.49,0,.9.17,1.24.5.33.34.5.74.5,1.2v1.69ZM82.69,50.61c0,3.26-.96,5.79-2.87,7.58-1.92,1.79-4.71,2.69-8.39,2.69h-3.21c-3.69,0-6.49-.9-8.4-2.69-1.91-1.79-2.86-4.32-2.86-7.58v-13.78c0-.46.16-.86.49-1.2.33-.33.73-.5,1.22-.5h3.34c.45,0,.84.17,1.18.5.33.33.5.73.5,1.2v13.81c0,1.75.38,3.05,1.15,3.91.77.86,1.95,1.29,3.56,1.29h2.86c1.61,0,2.79-.43,3.56-1.29.77-.86,1.15-2.16,1.15-3.91v-13.81c0-.46.16-.86.49-1.2.33-.33.72-.5,1.19-.5h3.32c.49,0,.9.17,1.23.5.33.33.5.73.5,1.2v13.78Z"/><polygon class="cls-1" points="43.51 51.27 43.51 40.87 34.35 51.27 43.51 51.27"/></symbol></defs><g id="Layer_1"><use id="safari-pinned-tab" width="96" height="96" transform="scale(7.29)" xlink:href="#_3_letters_Safari"/></g></svg>