<?xml version="1.0" encoding="utf-8"?>
<!-- Generator: Adobe Illustrator 27.5.0, SVG Export Plug-In . SVG Version: 6.00 Build 0)  -->
<svg version="1.1" id="Vrstva_1" xmlns="http://www.w3.org/2000/svg" xmlns:xlink="http://www.w3.org/1999/xlink" x="0px" y="0px"
	 viewBox="0 0 1055.8 543.9" style="enable-background:new 0 0 1055.8 543.9;" xml:space="preserve">
<g>
	<path d="M749,302.3c14.4-3.9,17-14.5,17.4-20.4c0.5-8-4.1-14.2-8.2-17c-3.5-2.8-8.6-4-16.4-4h-24l-13.6,69h15.2l10.8-56.1h9
		c7.1,0,12.2,0.6,12.2,8.2c0,5.6-3.5,9-10.8,10.6c-4.6,1-9.6,1.8-11.8,2.2l18.4,35.2h16.1L748,302.7L749,302.3z"/>
	<path d="M416.8,260.8l-7.2,38c-0.4,2.2-0.7,5-0.7,8.4c0.1,6.1,4,11.2,11.7,11.2c9,0,14.8-5.8,17.4-19.6l7.2-38h15.5l-7.2,37.7
		c-4.3,22.3-14.4,32.5-34.8,32.5c-15.2,0.1-25.1-7.7-25.1-23.8c0-3,0.4-6.3,1-9.4l6.9-37.1h15.3V260.8z"/>
	<path d="M461.6,329.8l13-69h19.2l10.3,26c3.2,8.6,5.2,15.9,7.2,24.2h0.4c0.1-6.9,1-13.1,2.9-22.8l5.1-27.5h14.7l-13,69h-16.8
		l-11-28.1c-3.3-9.2-5.6-15.9-7.8-24.3h-0.4c-0.7,6.7-2.3,15.8-4.3,26.4l-4.9,26.2h-14.8V329.8z"/>
	<path d="M564.5,260.8l-13.1,69H536l13.1-69H564.5z"/>
	<path d="M618.5,329.5c-2.9,0.7-6.9,1.6-15.7,1.5c-18.5,0-33.9-9.7-33.9-31.1c0-15.2,7.4-26.8,18.9-33.3c7.5-4.6,16.3-6.8,26.9-6.8
		c8.8,0,12.3,1.5,15.9,2.8l-2.6,12.8c-2.2-1-7.8-2.6-14.7-2.6c-6.8,0-13,1.7-17.6,5.2c-6.2,4.3-10,11.6-10,20.7
		c0,11.8,7.4,19.6,21.4,19.6c5.6,0,9.9-0.2,14-1.9L618.5,329.5z"/>
	<path d="M659.2,331c-18.9,0-31.6-11.9-31.6-30.8c0-11.9,4.6-22.3,12.3-29.6c7.2-6.9,17.3-11.1,28.5-11.1
		c19.3,0,31.6,11.8,31.6,31.1c0,11.8-4.3,22-11.9,29.3C681,326.9,671,331,659.2,331z M661.5,318.4c5.4,0,10.2-2.3,13.9-6.1
		c5-4.9,8-12.5,8-20.7c0-10-3.9-19.3-16.8-19.3c-5.6,0-10.5,2.3-14.2,6.1c-5.2,5.2-8.2,13-8.2,20.7
		C644.2,310.7,649.8,318.4,661.5,318.4z"/>
	<path d="M769.2,329.8l13-69h19.2l10.3,26c3.2,8.6,5.2,15.9,7.2,24.2h0.2c0.1-6.9,1-13.1,2.8-22.8l5.1-27.5h14.7l-13,69H812
		l-11-28.1c-3.3-9.2-5.6-15.9-7.8-24.3H793c-0.7,6.7-2.3,15.8-4.3,26.4l-4.9,26.2h-14.7V329.8z"/>
	<path d="M308.4,247.9c-0.6,1.1-0.7,3.2-2.6,3.2c-0.2-0.1-0.1-0.5-0.4-0.5c1.2-4.1,1.2-8.9,2.7-12.9
		C311.2,240,309.3,244.8,308.4,247.9z M412.9,224.1c-3.2,1.3-6.6,6.1-10.6,5.2c-2.7,2.6-3.3,5.1-7.2,5.5c-7.8,0.4-6.9,7.2-14.4,6.7
		c-8.8-0.6-9.9,9.2-21.9,8.3c-4.7,4.5-8.9,8.3-17,8.3c0.5,1.1,0.7,1.2,1.2,2.2c1.6,3,5.7,6.8,7.3,9.7c1,3.4,1.6,6.9,2.8,10.3
		c2.1,2.7,4.1,6.4,6.3,10c1.7,6.1,7.7,8.3,9.5,14.8c1.3,1.6,3.8,2.7,2.9,5.4c-1.6,6-0.5,14.4-8.3,15.3c-1.2,0.7-4.7,2.2-7.5,2.3
		l-1.7-1.8c-0.9,1.1-0.5,2.2-1.1,3.4c-7.3-0.5-9,2.9-17.9-5.8c-1.2-1.2-1.7-2.9-1.8-4.6c-2.7-1.6-5.6-6.3-8.4-7.5
		c-5.5-0.6-11.8,0.5-15.3-4.6c-1.3,0.9-0.4,2.6-0.2,3.8c3,3.7,0.7,9.7,4.4,13c0.6,1.2,0.2,2.9,0.4,4.3c-2.3,0.5-5.1-0.1-6.6,2.3
		c-10.3-0.5-17.3,7.5-27.4,7.9c-6.2,3-13,6-20.4,6.7c-8.3,3.2-17.9,3.4-27,4.6c-3.4,2.2-7.2-0.7-10-2.2c-0.2,0.5-0.2,1.2-0.9,1.6
		c-2.7-0.6-4.9-2.7-5.6-5.2c-0.6-1.2-1.7-0.2-2.6,0.1c1.1-4.9,2.7-9.9,6.7-13.4c3.7-5.1-0.5-10.5-1.9-15.2
		c-0.9-5.5-5.7-10.3-2.7-16.4c2.3-4.3,3.7-9.4,3-14.5c-0.6-2.8-3.4-6.4-0.4-9c1-4.4,4.5-7.7,3.7-12.9c0.1-1.9-0.7-3.4-0.6-5.2
		c2.6-6.6,10.3-9.4,10.3-16.8c0.2-2.2,0.9-4.1,2.3-5.8c4.5-0.1,7.3-4.1,11.2-5.8c1.9-2.6,3.7-7.5,7.7-6.3c6.7-0.4,11.1-8.3,18-5.8
		c4.4,0.5,9.5,3,13.7,0.1c2.7-2.9,5.5,0.9,8.2,0.5c1.6,1.3,4,1.1,6,1.6c5-1,2.7-6.9,5.1-10.1c1.9,0.9,1.5,3.4,3.3,4.7
		c0.6,4.7,4.3,7.8,7.1,11.6c1.3,0.9,3.4,1.6,4.7,0.7c2.3-1.3,3.8-1.8,7.1-1.3c0,0,1.1,1.5,0.9,1.8c-1.7,0.6-3.5,1.5-5.1,2.7
		c1,0.9,3.9-0.2,5.5-0.4c3-0.4,4.4-1,6.9,1c0.6,1.5,0.9,1.7,1,3.5c-5.7-1.8-5.2,1.5-9.2,2.3c1,1.1,1.9-0.4,3.4,0.2
		c2.3,1,2.1,3.3,6.6,3.5c2.3,3.8,3.8,0.9,5.8,0c2.7-1.3,4.5-1,8.4-1c2.8-3.4,9.1-4.6,13.7-3.9c2.1-0.2,2.2-2.3,3.8-3.4
		c4.7-1.6,5.8-2.1,13.7-1.9c4.1-7.1,13.3-2.2,18.5-6.9c2.3-1,5.5-0.6,7.9-1.2c1.7-0.6,3.4-1,5-0.2
		C414.8,222,414.2,223.6,412.9,224.1z M324,243.1c3.3,2.8,7.7,4.9,12.5,4c0.9-1.7-1.6-1.2-2.2-2.3
		C333.4,240.3,326.6,241.6,324,243.1z M317.9,243.6c1.1-1,2.7-1.1,2.7-2.8c-1.1-0.7-1.3-6.8-3-5.7
		C317.6,236.7,315.7,243.3,317.9,243.6z M316.4,254.4c2.8-1.8,5.7-3.7,8.6-4.9c0-1.9-2.1-3.3-3.9-3.9c-1.5,3.2-4.7,5.2-7.1,8
		C313.6,254.9,315.7,254.6,316.4,254.4z M301.4,255.5c0.5,0.7,1.2,0.6,1.8,1.3c2.9,2.9,5.2-1.2,6.8-2.7c4.4-6.8,5.4-18,1.2-25.2
		c-1.3-1.8-2.1-4-4.3-4.9C303.9,233.8,304.1,245.5,301.4,255.5z M309.5,259.5c-2.1,1.6-4.7,2.4-6.2,4.7c-0.2,0.9-0.6,2.3,0.5,2.6
		C305.9,265,310,262.8,309.5,259.5z M291.3,222.7c0.5,2.7,3.4,3.3,5.1,5.1c1,0.7,1,2.2,1.9,2.7c1.6,0,2.7-1.3,3.9-2.3
		c0.2-1.2-1.8-1.8-1.9-3.3C297.3,224.3,294.9,221.2,291.3,222.7z M299.2,258.6c-0.5-1.2-2.2-2.4-3.4-1.8c-1.3,1.8-2.6,4.1-1.6,6.6
		c1.3-0.7,3.7-0.6,4.9-1.6C299.9,260.7,299,259.7,299.2,258.6z M300.3,239.5c-1-1.2,0.9-4.4-1.6-4.4c-0.9,1.5-1.2,3-1.9,4.6
		c0,2.2,0.7,4.1,0.7,6.2c0.2,0.5,0.5,1.6,1.3,1.3C300,245,301.4,242.5,300.3,239.5z M272.1,223.1c3.3,3,8.3,3.7,10,8
		c1.2,0.6,3,1,4.4,0.4c2.1-0.2,4.4-0.2,6.2-0.6c0.2-1.6-2.1-2.2-2.7-3.5c-4.7-1.6-9-4.1-14.1-4.7
		C274.7,222.6,272.7,221.9,272.1,223.1z M277,238.7c-1.7,1.9-3,4.9-2.4,7.5c1.9-0.6,2.3-3,3.2-4.7c0.9-1.2,1.8-1.9,2.7-3.3
		C281.6,235.3,278,238.1,277,238.7z M263.2,226.6c1.7,2.2,3.8,2.8,5.8,4.5c1.5,1.1,2.1,3.2,3.8,3.5c1.6-1.3,3.4-1,5.2-2.1
		c-1.2-1.5-2.7-2.6-4.3-3.3c-1.1-0.2-1.3-1.5-2.3-2.1C269.2,226.9,265.7,224.6,263.2,226.6z M272.5,240.9c0.1-0.2-0.1-0.6-0.4-0.5
		c-1,0.2-1.3,1.3-2.2,2.2c-0.7,2.7-0.1,5.8,0.9,8c0.4-0.1,0.6-0.5,0.9-0.7C271.4,246.8,272.2,243.8,272.5,240.9z M260.8,233.6
		c-2.7,0.5-5.5,2.1-6.9,4.7c1.9,0,3.8,0,5.7,0c2.3-0.1,4.7,2.2,7.1,0c1-0.9,3.7-0.6,2.8-2.7C267.9,233.3,263.6,233.6,260.8,233.6z
		 M265.1,251.1c0.6,1.5,0.7,4,2.2,4.4c0-3.5,0.2-7.3-0.9-10.2C264.6,246.5,265.2,249,265.1,251.1z M248.8,236.7
		c3.4-0.2,5.2-3,7.8-4.9c0.7-1.1,2.6-1.2,2.7-2.2c-1.1-1.6-3.3-0.1-5.1-0.5C250.9,230.4,249,233.7,248.8,236.7z M245.8,248.1
		c2.9-0.6,5.1,0.6,7.9-0.2c2.1-1.2,5.5-1.8,5.8-4.4c-1.6-1.5-4.4-0.2-6.2-1.1C250.5,243.6,246.4,243.9,245.8,248.1z M242.8,252
		c-3.3,1.2-7.9,4.1-7.9,7.9c4.5-2.6,10-3.3,15.3-3.9c0.6-0.7,1.9-1.6,1.7-2.9C248.8,252.9,246.2,251.7,242.8,252z M242.1,270.3
		c-3.3-0.9-6.1,1.9-8.6,3.7c-0.9,2.1-3.3,3.8-3.4,6.4c0.2,0.4,0.6,0.2,0.9,0.5c1.9-2.2,4.4-3.9,7.5-3.5c1.9-1.3,1.9-3.9,3.4-5.5
		C241.7,271.2,242.4,270.7,242.1,270.3z M230.6,290.3c2.7-2.8,3.8-6.2,6.1-9.2c-3.9,0.5-5.2,4.1-6.9,6.9
		C229.9,288.7,229.5,290.3,230.6,290.3z M230.1,316.3c-0.5-1.6-1.8-1.3-2.8-0.1c-1.6,2.7-1.6,6.8-0.7,9.9c0.6,0.2,0.9-0.2,1.2-0.5
		C229,322.8,231.2,320,230.1,316.3z M234.4,316.7c2.3,1.1,2.6,4,4.5,5.1c0.2-1.9,0.1-4.1-0.4-6.1c-1.1-1.7,1-4.7-1.8-5.7
		c-0.9-3.8-2.9-7.2-4.4-10.6C229.4,305.5,233.4,311.1,234.4,316.7z M239.1,306.5c0.9-6.6,2.2-13.3,1.6-20c-0.1-0.9-0.5-1.6-1-2.2
		c-2.2,2.1-3.3,4.5-4.1,7.1C234.6,297,236.1,302.9,239.1,306.5z M246.2,261.7c-2.2-1.7-5.1-0.6-7.3,0c-3,2.7-7.2,5.7-7.1,9.4
		C237.1,269,241.9,264.5,246.2,261.7z M235.7,245.4c2.7,0.1,4.7-2.2,7.2-2.1c-0.5-2.3,1.7-3.7,0.9-5.8c-0.1-0.2-0.1-0.6-0.5-0.9
		C238.8,237.6,236.3,240.9,235.7,245.4z M226.7,266.4c4.4-5.1,5.5-12.5,12-16.8c0-0.1,0-0.4,0-0.5c-2.1-1-3.3,2.6-5.5,2.2
		C228.1,254.4,226.7,260.5,226.7,266.4z M222.7,283.3c0.2,0.2,0.2,1,0.7,0.9c1.2-0.1,0.5-1.5,0.6-2.3c1.5-3.2,2.3-6.6,2.7-10.2
		C223.1,274.1,221,278.7,222.7,283.3z M220.9,297c1.5,2.2,3-1,5.2,0c-0.9-1.9,1.3-6.3-2.2-6.3C221.6,291.7,221.9,294.8,220.9,297z
		 M225.4,300.6c-1.6-0.9-2.7,0.9-4,1.3c-1.6,1.6-1.6,4-1.2,6.2c0.6,0.5,0.2,1.9,1.3,1.8C223.1,307.2,224.1,303.8,225.4,300.6z
		 M224.1,316.6c1.2-2.9,4.6-4.9,5.4-7.9c0.6-1.8-1-3.7-0.5-5.1c-0.2-0.4-0.6-0.5-1-0.5c-1.1,1.6-1.7,3.4-3.2,4.9
		C224.4,310.7,222.7,313.9,224.1,316.6z M225.4,339.3c1.3-2.2,2.4-5.1,2.6-8c-2.9,1-3.3,4.1-3.8,6.8
		C224.5,338.5,224.3,339.8,225.4,339.3z M247.1,344.2c-2.9-1.2-4-4.7-6.4-6.4c-1.2,1.5,1.2,4.1,0,5.7c-3-1-2.6-5.6-3.9-7.7
		c-2.6,0.6-1.7,3.5-3.4,4.9c-0.5,0.4-0.9-0.1-1-0.5c1.1-3.8,0.1-9.2,5.4-10.3c1.8-2.1-1.1-0.1-1.6-1.2c-0.4-1.1,0.6-1.6,0.9-2.6
		c-1.2-1.3-2.3-6.1-4.9-3c-1.7,1.9-1.3,5.1-0.4,7.3c1.7,5.7-6.8,8.9-3,14.6c6.2,0.1,12.3-0.1,18.4-0.4
		C246.9,344.5,247.1,344.4,247.1,344.2z M254.4,341.9c-3.4-3.4-7.5-6.2-11-9.9c-1.6,4.7,3,7.7,5.1,11.2c0.6,0.4,1.3,0.6,2.1,0.6
		C251.9,343.5,254.8,344.2,254.4,341.9z M305.8,324.2c-4.3-0.4-7.5-2.7-11.7-3.3c-6.8-4.4-15.1-6.6-20.3-13.9
		c0.9-1.8-1.6-3.8,0.7-4.7c2.8,3.4,6.2,5.7,9.4,9c1.3,0.5,2.9,0.5,3.9,1.6c4.3-0.2,6.3,3.8,10.3,4c1.7,1.3,4.7,0.5,6.8,0.5
		c-0.1-0.6,0.2-1.6-0.4-1.9c-10.3-3.4-20.2-7.5-29-14.8c0.6-1.1,0.4-2.6,0.9-3.7c1.8,0.2,3.2,1.3,4.4,2.3c3,3.9,8.3,5.5,11.9,8.3
		c3.7-0.1,6.1,3.3,9.6,2.7c1.2-1.9-1.3-2.6-1.2-4.4c-5.1-1-10.5-2.3-14.7-4.7c-3.7-2.4-8.4-4-10.1-8.3c-0.1-0.9,0.7-1.7,1.6-1.6
		c1.2,0.2,1.3,1.5,1.7,2.3c3.7,2.9,7.7,5,11.8,6.7c1.2,0.1,2.6-0.1,3.8,0.1c0.7-0.2,0-1,0-1.3c-2.8-1.6-5-4.4-7.8-5.8
		c-2.7-1.7-6.2-1.2-8.6-3.5c-0.4-1.2-0.1-3,0.7-4.3c2.6,2.6,5.7,5.4,9.4,3.5c0.1-1.2-0.6-2.1-1.2-3c-1.7-2.7-8.2-2.9-6.2-7.3
		c2.6,0.2,4.3,3.9,7.4,2.3c0.5-4.4-5.2-5.6-5.7-9.6c3.2-2.1,4,2.9,7.4,2.2c0.6-2.6-0.9-5.6-1.2-8.4c2.7-2.2,0.1-5.1,0.2-7.5
		c0.5-3.2,4.1-3,3.9-6.6c-0.9-3.9-0.4-7.7-1.2-11.4c-3.9,1.3-4.1,6.6-4.7,10.6c-1.7,3,1.9,5.4,0.1,8c-0.9,0-1.5-0.5-2.1-1.2
		c-1.2-6.8-0.6-14.2,2.9-19.7c-0.1-0.4-0.5-1-1-0.7c-4.3,1.9-5.6,6.6-5.7,11c0.5,3.4,0.4,7.3,2.2,10.1c-0.1,0.5-0.2,1.1-1,0.9
		c-3.8-3-3.8-7.7-4.7-11.8c-2.2,2.3-2.2,6.2-3,9.4c-0.1,1.1,1.1,2.2,0.1,3.2c0.9,4,1.2,8,2.6,11.8c-0.4,0.6-1,0.6-1.6,0.7
		c-0.6-1.2-2.6-2.1-2.1-3.8c-2.2-3-1.7-7.3-2.6-11c-0.1,0.9-1.1,1.2-1.2,1.9c-1.2,3.7-2.3,9.2,0.9,12.4c0.1,2.3,2.1,3.4,2.9,5.5
		c-0.5,2.3,2.2,3.8,1.2,5.8c-1.5-0.1-3.2-1-4.5-1.9c-0.7-6.2-5.2-10.8-5.7-17.2c-0.6-4.4-1.3-9.1-3-12.9c-0.5,3.8-0.6,8.4-0.5,12.9
		c-0.1,3.9,2.1,6.8,1.3,11c1.5,1,2.3,4.9,2.3,4.9l1,2.2c0,0,3.7,5.5,4.9,8.6c0.5,0.1,0.5,1.1,0,1.3c-3.7-1.2-6.4-3.4-7.1-7.4
		c-4.9-5.8-4.5-13.9-6.2-21.1c-0.6-3.2,0.7-6.2-0.6-9c-0.7,1.2-1.5,2.3-1.5,3.9c0.7,7.4-0.5,15.8,3.8,21.7c0.5,5.4,5,8.9,4.4,14.6
		c2.9,1.5,0.9,5.2,3.2,7.1c0.6,0.7-0.6,1-1,1.2c-0.5-0.2-1.2-0.9-1.2-1.3c-2.3-1.2-0.4-4.1-3.3-5.1c-0.5-6-5.8-10.5-5.8-16.4
		c-3.8-5.7-2.1-11.3-3.5-17.8c-1.1,2.1-1.5,5.7-1,8.9c2.6,8.2,1.3,19.3,8.4,24.9c0.1,0.9,0.6,2.9-0.5,3c-2.3-3.7-4.4-6.4-7.2-9.7
		c-1.1-6.7-3.5-13.4-3.8-20.6c-0.6,0.7-0.6,1.7-1,2.6c1,7.5,2.1,15.1,3.9,22.1c0.1,0.4,0.5,0.9,0.9,0.9c0.7,3.3,3.3,5.8,4.1,8.9
		c0.1,0.2-0.2,0.2-0.1,0.6c3.4,3.3,4.1,7.8,7.4,10.8c0.9,2.2,2.6,4.1,2.7,6.4c-0.7,0.2-1.5-0.5-2.2-0.7c-4-4.4-6.8-10.1-10.6-14.6
		c-1.6-6.8-5.2-12.8-7.1-19.5c-0.6-1.7,0.6-4.1-1.2-4.5c0.5,9.5,1.9,17.9,6.6,25.7c2.7,3,3.5,7.1,6.8,9.7c1.3,1.3,1.5,3.8,3.8,4.5
		c0.4,0.6,0.1,1.3-0.5,1.7c-3.2-1.7-5.5-4.4-7.4-6.8c-2.7-0.2-2.8-3.2-3.4-5.1c-4.1-4-4.9-9.6-7.4-14.5c0.6,4,1.7,7.8,3,11.4
		c4.4,6.7,7.1,14.1,14.5,18.9c0.4,1.9,2.7,1.3,3.4,3c-1.7,2.6-1.5,1.5-3.4-0.4c-4-2.9-9-7.3-12.8-11.1c-1.8-2.2-2.6-5.4-4.4-7.1
		c-0.2,2.7,1.1,4.5,1.6,6.9c3.7,6.3,8.9,12.5,14.2,18.1c-0.5,0.6-1.5,0.6-2.2,0.4c-2.8-3-6.9-4.1-8.3-8.3c-3.8-2.1-4.6-6.8-7.7-10
		c0.5,8.6,6.4,16.8,13.9,20.2c1,0.9,0.1,2.9,1.6,3c0.7-1.3,2.3-1.3,3.4-2.3c6.2,0.9,11.9,0.5,16.8-3.3c-3.5-2.1-8.5-3.4-8.4-8.4
		c0.2-0.2,0.7-1.2,1.3-0.6c0.9,0.5,1.6,1.3,1.7,2.3c3.7,1.3,6.6,4.4,11.1,4.1c5.2-0.2-1.6-2.1-2.6-3.2c-4.3-2.1-8-6.3-10.8-9.7
		c0.4-1.2,0.2-2.9,1.6-3.7c4.9,7.9,13.1,11.7,21.2,12.9c0.4-0.4,1-0.6,0.5-1.2c-6.1-1.9-11.8-5.4-16.8-9.9c-1.2-1.9-4.4-1.7-4.5-4.4
		c0.6-1.6-0.5-4,0.9-5.1c7.9,10.6,19.6,16.8,32.1,17C305.3,326.1,306.2,325.2,305.8,324.2z M349.6,321.1c-1.2-3.4-3.4-6-6.1-8.8
		c0.6,2.7,1.9,6.8,3.5,7.4C348.2,320,348.7,321.6,349.6,321.1z M340.4,270.4c-2.6-1.8-5.6-2.2-7.5-4.4c1.5-2.2,3.8,0.4,5.7,0.5
		c0.4-0.2,1.5,0,1.2-0.9c-1.7-4.6-8.8-0.9-10.7-5.2c2.2-2.1,6.4-0.2,8.3-1.6c-0.5-1.5-2.6-1.7-3.8-2.6c-2.1-0.2-4,0.5-5.5-0.5
		c1.7-1.9,4.4-2.2,6.9-1.8c-1.2-2.8-5.1-0.5-7.3-1.9c-2.6,2.1-7.3,1.3-7.7,5.6c-0.7,1.6-2.7,2.9-4.4,2.3c-2.4,0.5-1.9,3-3.3,4.5
		c-1-0.2-1.6,0.6-2.4,0.9c-1,2.4,2.4,1.8,3,3.7c-2.3,1.8-5.6,1.1-8.5,1.2c0,0.6,0,1.2,0,1.8c-2.1,1.5-4.1-1-6.2-1.6
		c-4.5-2.9-1.6,3.5-2.4,5.4c2.3,3-2.2,3.8-1.2,7.2c1.5,4.7,1.6,10.7,6.1,13.7c0.5-5.7-3.3-11.6-0.2-17.2c0.6,0.5,1.6-0.9,1.9,0.4
		c-0.9,6,0.2,12.2,3.2,17c0.6,0.2,1.8,0.6,2.3,0c-0.6-3.3-1.6-6.6-1.2-10c1.2-1.1,1.7-3.5,3.8-2.8c-0.5,5.7,1.9,10.6,2.7,16.1
		c1.7,1.2,1.9,4.5,3.5,4.9c-0.1-1.2-0.4-2.6-1.2-3.5c-0.1-2.2-0.9-4.5,0.6-6.2c2.4,2.7,2.4,6.4,4.4,9.4c3.5,2.7-0.6-2.2,0.2-3.8
		c-0.2-2.6-2.7-5.1-0.2-7.4c3,6.4,3.2,7.5,3.9,8.9c1.2,1.5,1.5-2.9,3.2,3.5c2.9,1.3-1.2-6.1,2.2-4.9c1.2-0.4,1.1,0.7,1.2,2.4
		c1.1,3.7,1.6,4.9,2.7,7.9c0.6,1.1,1.2,1,2.6,1.2c1.3-0.2-0.4,3.8,0.7,6.1c0.9,0.9,1.7,1.5,1.7,1.5l0.9,1c0.5,0.9,0.6,1,1.2,1.3
		c2.6,3.8,2.6,2.8,6.4,2.7c0.6,0.2,0-0.9,0-1.2l-3.8-3.9c-1.3-1.9-1.8-6.6-3.5-8.3c-0.6-0.9-1.8,0-1.9-1.6c-3-2.4,2.3-3.2,2.7-5
		c1.5-0.5,2.7,1,3.9,1.8c1,3.2,5,3.8,6.8,7.5c1.6,2.8,3.2,5.2,5.7,6.2c3.3,1.2,3.9-0.9,6.2-2.2c6.4-5.2,1.3-7.9,0.5-11.2
		c0.2-3.4-3.7-5-5.8-6.4c-0.2-1.8,1-2.6-1.2-3.3c-3.5-0.5-6.3-2.9-9-5c-2.2-1.6-6.1-1.9-6.6-4.7c3.7-0.9,6.4,2.4,9.9,2.3
		c0.4-3.2-2.8-2.9-4.5-4.7c-0.2-1.3-1.3-2.2-2.6-3c-0.9-2.2,1.7-0.2,2.7-0.9c1.3-4.1-6-5.1-3.3-9
		C342.3,271.9,341.4,270.9,340.4,270.4z M353.6,248.4c-6.2-4.5-8.3-4.5-11.9-1.6c0,0,4.5,4.5-1.9,3.8c0,0,3,1.8,3.4,2.9
		c4.9,0.5,6.1-1.2,7.7-3.5C351.8,249.2,352.4,249.4,353.6,248.4z M370.8,240c-2.2-1.5-4.9-1.6-7.5-1.6c-3.8,0.2-4.4,3.7-6.6,5.5
		c3.5,1.7,2.8,1.7,5.6,2.1C365.1,245.3,369.9,242.9,370.8,240z M386.7,235.4c-2.8,0.2-4.1-2.8-7.1-2.2c-1.7-0.1-3.8,1.3-4.5,3
		c1.3,0.6,3.5,1.5,5.2,2.3C383,238.2,385.6,238,386.7,235.4z M399.1,229c-2.4-1.7-6.8-1.7-9.2,0.9c-3.9,2.2,3,2.4,4.6,2.6
		C397.1,232.4,397.9,230.9,399.1,229z M324.1,262.1c-1.7,1-5.1,0.1-5.2,2.8c2.2,0.5,4.9-0.9,6.7,0.4c-1.7,1.6-5.4,1.8-5.5,4.4
		c1.9,0.6,3,3.7,5.1,4c2.6-1,7.7,0.2,8.3-3.7C330.2,267.2,329.5,261.3,324.1,262.1z M353.5,304.5c-0.9,2.1,1.8,3.3,0.9,5.2
		c-0.6,1.9,0.7,3.2,2.6,3c0.7-0.5,2.4-0.2,2.3-1.6C359.7,307.7,356,306,353.5,304.5z"/>
</g>
<path d="M859.6,116.9h-84.4v8.9h84.4c46.7,0,84.7,38,84.7,84.7v137.5c0,46.7-38,84.7-84.7,84.7H196.1c-46.7,0-84.7-38-84.7-84.7
	V210.5c0-46.7,38-84.7,84.7-84.7h84.4v-8.9h-84.4c-51.6,0-93.6,42-93.6,93.6v137.5c0,51.6,42,93.6,93.6,93.6h663.5
	c51.6,0,93.6-42,93.6-93.6V210.5C953.2,158.9,911.3,116.9,859.6,116.9z"/>
<path d="M321.3,139h-7.7l0.1-5h7.7c2.2,0,4.1-0.5,5.6-1.5c1.5-1,2.7-2.4,3.4-4.2c0.8-1.8,1.2-4,1.2-6.5v-2c0-2-0.2-3.7-0.7-5.2
	c-0.4-1.5-1.1-2.8-1.9-3.8c-0.8-1-1.9-1.8-3.1-2.3c-1.2-0.5-2.6-0.8-4.3-0.8h-8.1v-5h8.1c2.4,0,4.6,0.4,6.6,1.2
	c2,0.8,3.7,1.9,5.1,3.5c1.5,1.5,2.6,3.3,3.3,5.4c0.8,2.1,1.2,4.5,1.2,7.1v1.9c0,2.6-0.4,5-1.2,7.1c-0.8,2.1-1.9,3.9-3.3,5.4
	c-1.5,1.5-3.2,2.6-5.2,3.5C326.1,138.6,323.8,139,321.3,139z M317.1,102.7V139h-6.2v-36.2H317.1z M375.5,134v5h-19.2v-5H375.5z
	 M358,102.7V139h-6.3v-36.2H358z M372.9,117.9v4.9h-16.7v-4.9H372.9z M375.3,102.7v5h-19.1v-5H375.3z M400.6,132.3l9.5-29.6h6.9
	L404,139h-4.6L400.6,132.3z M391.8,102.7l9.5,29.6l1.3,6.6h-4.7l-12.9-36.2H391.8z M452.4,134v5h-19.2v-5H452.4z M435,102.7V139
	h-6.2v-36.2H435z M449.9,117.9v4.9h-16.7v-4.9H449.9z M452.3,102.7v5h-19.1v-5H452.3z M487.8,134v5h-18.2v-5H487.8z M471.4,102.7
	V139h-6.2v-36.2H471.4z M527.6,119.9v2c0,2.7-0.4,5.2-1.1,7.4c-0.7,2.2-1.7,4-3.1,5.5c-1.3,1.5-2.9,2.7-4.7,3.5
	c-1.8,0.8-3.9,1.2-6.1,1.2c-2.2,0-4.3-0.4-6.1-1.2c-1.8-0.8-3.4-2-4.8-3.5c-1.3-1.5-2.4-3.4-3.1-5.5c-0.7-2.2-1.1-4.6-1.1-7.4v-2
	c0-2.7,0.4-5.2,1.1-7.3c0.7-2.2,1.8-4,3.1-5.5c1.3-1.5,2.9-2.7,4.8-3.5c1.8-0.8,3.9-1.2,6.1-1.2c2.2,0,4.3,0.4,6.1,1.2
	c1.8,0.8,3.4,2,4.8,3.5c1.3,1.5,2.3,3.4,3.1,5.5C527.2,114.7,527.6,117.1,527.6,119.9z M521.3,121.8v-2c0-2-0.2-3.8-0.6-5.3
	c-0.4-1.6-1-2.9-1.7-3.9c-0.8-1.1-1.7-1.9-2.8-2.4c-1.1-0.5-2.3-0.8-3.7-0.8c-1.4,0-2.6,0.3-3.7,0.8c-1.1,0.5-2,1.3-2.8,2.4
	c-0.7,1-1.3,2.3-1.7,3.9c-0.4,1.5-0.6,3.3-0.6,5.3v2c0,2,0.2,3.8,0.6,5.4c0.4,1.6,1,2.9,1.7,4c0.8,1.1,1.7,1.9,2.8,2.4
	c1.1,0.5,2.3,0.8,3.7,0.8c1.4,0,2.6-0.3,3.7-0.8c1.1-0.5,2-1.4,2.7-2.4c0.7-1.1,1.3-2.4,1.7-4C521.1,125.7,521.3,123.9,521.3,121.8z
	 M555.2,125.5h-9.4v-5h9.4c1.6,0,3-0.3,4-0.8c1-0.5,1.7-1.3,2.2-2.2c0.5-0.9,0.7-2,0.7-3.2c0-1.1-0.2-2.2-0.7-3.2
	c-0.5-1-1.2-1.8-2.2-2.4c-1-0.6-2.3-0.9-4-0.9h-7.5V139h-6.2v-36.2h13.8c2.8,0,5.2,0.5,7.1,1.5c2,1,3.5,2.3,4.5,4.1
	c1,1.7,1.5,3.7,1.5,5.9c0,2.3-0.5,4.3-1.5,6c-1,1.7-2.5,3-4.5,3.9C560.4,125,558,125.5,555.2,125.5z M605.3,134v5h-19.2v-5H605.3z
	 M587.9,102.7V139h-6.2v-36.2H587.9z M602.8,117.9v4.9h-16.7v-4.9H602.8z M605.2,102.7v5h-19.1v-5H605.2z M628.6,139h-7.7l0.1-5h7.7
	c2.2,0,4.1-0.5,5.6-1.5c1.5-1,2.7-2.4,3.4-4.2c0.8-1.8,1.2-4,1.2-6.5v-2c0-2-0.2-3.7-0.7-5.2c-0.4-1.5-1.1-2.8-1.9-3.8
	c-0.8-1-1.9-1.8-3.1-2.3c-1.2-0.5-2.6-0.8-4.3-0.8h-8.1v-5h8.1c2.4,0,4.6,0.4,6.6,1.2c2,0.8,3.7,1.9,5.1,3.5
	c1.5,1.5,2.6,3.3,3.4,5.4c0.8,2.1,1.2,4.5,1.2,7.1v1.9c0,2.6-0.4,5-1.2,7.1c-0.8,2.1-1.9,3.9-3.4,5.4c-1.5,1.5-3.2,2.6-5.2,3.5
	C633.3,138.6,631.1,139,628.6,139z M624.3,102.7V139h-6.3v-36.2H624.3z M692.9,122.6h-9.2l-0.1-4.6h8c1.4,0,2.5-0.2,3.5-0.6
	c1-0.4,1.7-1,2.2-1.8c0.5-0.8,0.7-1.7,0.7-2.8c0-1.2-0.2-2.2-0.7-3c-0.5-0.8-1.2-1.3-2.1-1.7c-0.9-0.3-2.2-0.5-3.6-0.5h-6V139h-6.2
	v-36.2h12.3c2,0,3.8,0.2,5.3,0.6c1.6,0.4,2.9,1,4,1.8c1.1,0.8,1.9,1.8,2.5,3c0.6,1.2,0.9,2.7,0.9,4.4c0,1.5-0.4,2.9-1.1,4.1
	c-0.7,1.2-1.8,2.2-3.2,3c-1.4,0.8-3.1,1.2-5.2,1.4L692.9,122.6z M692.6,139h-10.9l2.8-5h8.1c1.4,0,2.6-0.2,3.5-0.7
	c0.9-0.5,1.7-1.1,2.1-2c0.5-0.8,0.7-1.8,0.7-3c0-1.2-0.2-2.2-0.6-3.1c-0.4-0.9-1.1-1.6-2-2c-0.9-0.5-2.1-0.7-3.5-0.7h-7l0.1-4.6h9.1
	l1.4,1.7c2,0.1,3.6,0.5,4.9,1.3c1.3,0.8,2.3,1.9,2.9,3.2c0.6,1.3,0.9,2.7,0.9,4.2c0,2.3-0.5,4.2-1.5,5.8c-1,1.6-2.4,2.7-4.3,3.6
	C697.5,138.6,695.3,139,692.6,139z M721.2,102.7l8.4,17.3l8.4-17.3h6.9l-12.2,22.9V139h-6.3v-13.3l-12.2-22.9H721.2z"/>
</svg>
